<svg xmlns="http://www.w3.org/2000/svg" viewBox="0 0 247.6 247.6"><defs><style>.cls-1{fill:#231f20;}.cls-2{fill:#fff;}</style></defs><title>Asset 1</title><g id="Layer_2" data-name="Layer 2"><g id="Layer_1-2" data-name="Layer 1"><rect class="cls-1" width="247.6" height="247.6" rx="32.53"/><path class="cls-2" d="M69.69,195.6a4.94,4.94,0,0,1-2.1,2.8,6.62,6.62,0,0,1-3.9,1.2H43.09a4.25,4.25,0,0,1-3.3-1.2,2.85,2.85,0,0,1-.7-2.8l34.6-143A6,6,0,0,1,76,49.5a6.47,6.47,0,0,1,4.1-1.5h20.6a3.58,3.58,0,0,1,3.2,1.5,3.8,3.8,0,0,1,.6,3.1Zm52.8-130.4a4.25,4.25,0,0,1-3.3-1.2,2.85,2.85,0,0,1-.7-2.8l2.2-9.2a4.84,4.84,0,0,1,2.2-2.8,6.72,6.72,0,0,1,3.8-1.2h51a83.45,83.45,0,0,1,16.8,1.4q6.6,1.4,10,4.7a13.84,13.84,0,0,1,4,8.7q.6,5.4-1.4,13.6l-13.4,55a50.25,50.25,0,0,1-5.2,13.6,26.88,26.88,0,0,1-8.1,8.7,32.41,32.41,0,0,1-11.8,4.7,84.42,84.42,0,0,1-16.5,1.4h-53a4.25,4.25,0,0,1-3.3-1.2,2.85,2.85,0,0,1-.7-2.8l2.2-9.2a4.89,4.89,0,0,1,2.1-2.8,6.58,6.58,0,0,1,3.9-1.2h51q3.6,0,4.9-1.2t2.3-5.2l15.8-64.6c.66-2.66.7-4.4.1-5.2s-2-1.2-4.3-1.2Z"/></g></g></svg>